<?xml version="1.0" encoding="UTF-8" standalone="no"?>
<!-- Generator: Adobe Illustrator 26.0.1, SVG Export Plug-In . SVG Version: 6.00 Build 0)  -->

<svg
   version="1.1"
   id="Layer_1"
   x="0px"
   y="0px"
   viewBox="0 0 500 500.75989"
   xml:space="preserve"
   sodipodi:docname="Facebook Reaction Care Logo Vector.svg"
   width="500"
   height="500.75989"
   inkscape:version="1.3 (0e150ed, 2023-07-21)"
   xmlns:inkscape="http://www.inkscape.org/namespaces/inkscape"
   xmlns:sodipodi="http://sodipodi.sourceforge.net/DTD/sodipodi-0.dtd"
   xmlns:xlink="http://www.w3.org/1999/xlink"
   xmlns="http://www.w3.org/2000/svg"
   xmlns:svg="http://www.w3.org/2000/svg"><defs
   id="defs136" /><sodipodi:namedview
   id="namedview136"
   pagecolor="#ffffff"
   bordercolor="#000000"
   borderopacity="0.25"
   inkscape:showpageshadow="2"
   inkscape:pageopacity="0.0"
   inkscape:pagecheckerboard="0"
   inkscape:deskcolor="#d1d1d1"
   inkscape:zoom="0.419"
   inkscape:cx="249.40334"
   inkscape:cy="249.40334"
   inkscape:window-width="1392"
   inkscape:window-height="1092"
   inkscape:window-x="0"
   inkscape:window-y="25"
   inkscape:window-maximized="0"
   inkscape:current-layer="Layer_1" />&#10;&#10;<g
   id="g92"
   transform="translate(-250,-249.62)">&#10;</g>&#10;<g
   id="g136"
   transform="translate(-250,-249.62)">&#10;	<radialGradient
   id="SVGID_1_"
   cx="498.72989"
   cy="460.24551"
   r="250"
   gradientUnits="userSpaceOnUse">&#10;		<stop
   offset="0"
   style="stop-color:#FFEE46"
   id="stop92" />&#10;		<stop
   offset="1"
   style="stop-color:#F9CA41"
   id="stop93" />&#10;	</radialGradient>&#10;	<circle
   style="fill:url(#SVGID_1_)"
   cx="500"
   cy="499.62"
   r="250"
   id="circle93" />&#10;	&#10;		<radialGradient
   id="SVGID_00000072247157425062748540000016672843961172417684_"
   cx="434.1188"
   cy="639.48718"
   r="171.8607"
   gradientUnits="userSpaceOnUse">&#10;		<stop
   offset="0"
   style="stop-color:#FFEE46"
   id="stop94" />&#10;		<stop
   offset="1"
   style="stop-color:#E76A26"
   id="stop95" />&#10;	</radialGradient>&#10;	<path
   style="fill:url(#SVGID_00000072247157425062748540000016672843961172417684_)"
   d="M 696.426,654.28 263.262,580.16 c 0.11,0.323 0.228,0.642 0.34,0.964 1.72,4.793 10.113,27.108 26.525,54.368 44.557,68.685 121.904,114.128 209.873,114.128 38.623,0 75.197,-8.764 107.851,-24.403 0.455,-0.223 0.905,-0.435 1.36,-0.66 34.141,-16.607 63.936,-40.752 87.215,-70.277 z"
   id="path95" />&#10;	&#10;		<radialGradient
   id="SVGID_00000181766437048450016890000008927993191983659690_"
   cx="434.10571"
   cy="563.05933"
   r="142.13789"
   fx="440.95059"
   fy="421.0864"
   gradientUnits="userSpaceOnUse">&#10;		<stop
   offset="0"
   style="stop-color:#DF426F"
   id="stop96" />&#10;		<stop
   offset="1"
   style="stop-color:#DE2A3C"
   id="stop97" />&#10;	</radialGradient>&#10;	<path
   style="fill:url(#SVGID_00000181766437048450016890000008927993191983659690_)"
   d="m 525.197,691.834 c -45.692,31.182 -89.5,49.596 -109.876,57.283 -7.26,2.739 -15.448,0.941 -20.88,-4.601 -54.772,-55.888 -91.519,-130.161 -91.519,-130.161 l 10.759,-112.743 c 0,0 23.959,-43.061 87.466,-24.856 35.987,10.316 47.775,38.034 51.234,60.119 0,0 53.633,-69.268 123.199,-5.139 13.112,12.087 21.141,38.314 16.162,59.468 z"
   id="path97" />&#10;	&#10;		<radialGradient
   id="SVGID_00000105407331541277891370000014051258396766650034_"
   cx="536.0697"
   cy="569.47748"
   r="80.6539"
   gradientUnits="userSpaceOnUse">&#10;		<stop
   offset="0"
   style="stop-color:#E04D73"
   id="stop98" />&#10;		<stop
   offset="0.1129"
   style="stop-color:#DA4B70"
   id="stop99" />&#10;		<stop
   offset="0.2602"
   style="stop-color:#CA4667"
   id="stop100" />&#10;		<stop
   offset="0.4266"
   style="stop-color:#AF3E59"
   id="stop101" />&#10;		<stop
   offset="0.6069"
   style="stop-color:#893345"
   id="stop102" />&#10;		<stop
   offset="0.7986"
   style="stop-color:#59242C"
   id="stop103" />&#10;		<stop
   offset="0.9969"
   style="stop-color:#1F120E"
   id="stop104" />&#10;		<stop
   offset="1"
   style="stop-color:#1E120D"
   id="stop105" />&#10;	</radialGradient>&#10;	<circle
   style="fill:url(#SVGID_00000105407331541277891370000014051258396766650034_)"
   cx="536.07001"
   cy="569.47699"
   r="80.653999"
   id="circle105" />&#10;	&#10;		<radialGradient
   id="SVGID_00000019678770180211032000000002177713592887080103_"
   cx="382.72961"
   cy="522.85773"
   r="80.6539"
   gradientUnits="userSpaceOnUse">&#10;		<stop
   offset="0"
   style="stop-color:#E04D73"
   id="stop106" />&#10;		<stop
   offset="0.1129"
   style="stop-color:#DA4B70"
   id="stop107" />&#10;		<stop
   offset="0.2602"
   style="stop-color:#CA4667"
   id="stop108" />&#10;		<stop
   offset="0.4266"
   style="stop-color:#AF3E59"
   id="stop109" />&#10;		<stop
   offset="0.6069"
   style="stop-color:#893345"
   id="stop110" />&#10;		<stop
   offset="0.7986"
   style="stop-color:#59242C"
   id="stop111" />&#10;		<stop
   offset="0.9969"
   style="stop-color:#1F120E"
   id="stop112" />&#10;		<stop
   offset="1"
   style="stop-color:#1E120D"
   id="stop113" />&#10;	</radialGradient>&#10;	<circle
   style="fill:url(#SVGID_00000019678770180211032000000002177713592887080103_)"
   cx="382.73001"
   cy="522.85797"
   r="80.653999"
   id="circle113" />&#10;	&#10;		<radialGradient
   id="SVGID_00000128446866399318162600000017408322859485601942_"
   cx="403.5423"
   cy="371.03271"
   r="34.719398"
   gradientUnits="userSpaceOnUse">&#10;		<stop
   offset="0"
   style="stop-color:#474D70"
   id="stop114" />&#10;		<stop
   offset="1"
   style="stop-color:#152142"
   id="stop115" />&#10;	</radialGradient>&#10;	<path
   style="fill:url(#SVGID_00000128446866399318162600000017408322859485601942_)"
   d="m 434.771,387.784 c 0.656,-1.884 1.071,-3.92 1.201,-6.114 0.815,-13.791 -3.75,-32.439 -14.927,-41.453 -13.125,-10.584 -37.046,-7.621 -45.513,13.125 -8.468,20.746 -2.964,40.433 0,44.878 2.964,4.445 9.949,12.278 31.118,8.679 11.582,-1.968 24.185,-7.812 28.121,-19.115 z"
   id="path115" />&#10;	<ellipse
   style="fill:#7c7b90"
   cx="392.414"
   cy="354.71799"
   rx="9.6850004"
   ry="10.69"
   id="ellipse115" />&#10;	<path
   style="fill:#e76c1a"
   d="m 351.677,324.856 c 1.64,1.4 3.971,1.642 5.983,0.865 8.991,-3.473 44.599,-16.454 71.853,-15.352 31.436,1.27 31.436,2.223 30.166,-6.351 -1.092,-7.368 -4.763,-23.881 -46.483,-15.482 -14.755,2.97 -29.027,7.997 -42.469,14.767 -8.469,4.265 -17.08,9.371 -19.328,13.417 -2.381,4.286 -1.349,6.747 0.278,8.136 z"
   id="path116" />&#10;	&#10;		<radialGradient
   id="SVGID_00000096048643834851903290000018438831994642754464_"
   cx="592.59589"
   cy="371.03271"
   r="34.719398"
   gradientUnits="userSpaceOnUse">&#10;		<stop
   offset="0"
   style="stop-color:#474D70"
   id="stop116" />&#10;		<stop
   offset="1"
   style="stop-color:#152142"
   id="stop117" />&#10;	</radialGradient>&#10;	<path
   style="fill:url(#SVGID_00000096048643834851903290000018438831994642754464_)"
   d="m 561.367,387.784 c -0.656,-1.884 -1.071,-3.92 -1.201,-6.114 -0.815,-13.791 3.75,-32.439 14.927,-41.453 13.125,-10.584 37.046,-7.621 45.513,13.125 8.468,20.746 2.964,40.433 0,44.878 -2.964,4.445 -9.949,12.278 -31.118,8.679 -11.582,-1.968 -24.185,-7.812 -28.121,-19.115 z"
   id="path117" />&#10;	&#10;		<ellipse
   transform="matrix(0.1029,-0.9947,0.9947,0.1029,172.7014,896.9851)"
   style="fill:#7c7b90"
   cx="583.633"
   cy="352.74799"
   rx="10.69"
   ry="8.9630003"
   id="ellipse117" />&#10;	<path
   style="fill:#e76c1a"
   d="m 644.461,324.856 c -1.64,1.4 -3.971,1.642 -5.983,0.865 -8.991,-3.473 -44.599,-16.454 -71.853,-15.352 -31.436,1.27 -31.436,2.223 -30.166,-6.351 1.092,-7.368 4.763,-23.881 46.483,-15.482 14.755,2.97 29.027,7.997 42.469,14.767 8.469,4.265 17.08,9.371 19.328,13.417 2.381,4.286 1.349,6.747 -0.278,8.136 z"
   id="path118" />&#10;	&#10;		<linearGradient
   id="SVGID_00000070813797039175576580000001558674311703790485_"
   gradientUnits="userSpaceOnUse"
   x1="497.61761"
   y1="427.88281"
   x2="497.61761"
   y2="456.52481">&#10;		<stop
   offset="0"
   style="stop-color:#6C220E"
   id="stop118" />&#10;		<stop
   offset="1"
   style="stop-color:#DE2A3C"
   id="stop119" />&#10;	</linearGradient>&#10;	<path
   style="fill:url(#SVGID_00000070813797039175576580000001558674311703790485_)"
   d="m 486.034,456.223 c 0,0 25.191,2.117 42.55,-4.869 17.359,-6.986 29.213,-17.57 15.877,-20.746 -13.336,-3.175 -85.099,-4.445 -96.319,1.058 -11.22,5.503 9.526,23.287 37.892,24.557 z"
   id="path119" />&#10;	<g
   id="g133">&#10;		<defs
   id="defs119">&#10;			<circle
   id="SVGID_00000027601974636635912550000015038852877659009694_"
   cx="500"
   cy="499.62"
   r="250" />&#10;		</defs>&#10;		<clipPath
   id="SVGID_00000008146225373828261820000015863959179907486878_">&#10;			<use
   xlink:href="#SVGID_00000027601974636635912550000015038852877659009694_"
   style="overflow:visible"
   id="use119" />&#10;		</clipPath>&#10;		&#10;			<radialGradient
   id="SVGID_00000149371274190940034040000015942726112381158295_"
   cx="348.66031"
   cy="551.33313"
   r="109.0797"
   gradientUnits="userSpaceOnUse">&#10;			<stop
   offset="0"
   style="stop-color:#F9CA41"
   id="stop120" />&#10;			<stop
   offset="1"
   style="stop-color:#FBDA47"
   id="stop121" />&#10;		</radialGradient>&#10;		&#10;			<path
   style="fill:url(#SVGID_00000149371274190940034040000015942726112381158295_)"
   d="m 252.723,462.601 c 0,0 15.482,-1.721 58.667,37.019 43.185,38.74 90.18,18.893 98.753,14.527 8.573,-4.366 30.437,-0.181 21.592,13.733 -8.065,12.688 -17.782,16.829 -17.782,16.829 0,0 47.948,-2.858 55.886,13.336 7.938,16.194 13.972,55.569 -44.137,73.986 -58.109,18.417 -110.998,3.807 -153.617,-29.532 -42.619,-33.34 -49.605,-38.738 -49.605,-38.738"
   clip-path="url(#SVGID_00000008146225373828261820000015863959179907486878_)"
   id="path121" />&#10;		&#10;			<radialGradient
   id="SVGID_00000087409582194866939170000014496134582556140182_"
   cx="233.07761"
   cy="470.0441"
   r="177.5975"
   gradientUnits="userSpaceOnUse">&#10;			<stop
   offset="0"
   style="stop-color:#F1A22E"
   id="stop122" />&#10;			<stop
   offset="0.2018"
   style="stop-color:#F2A830;stop-opacity:0.7982"
   id="stop123" />&#10;			<stop
   offset="0.4647"
   style="stop-color:#F5B835;stop-opacity:0.5353"
   id="stop124" />&#10;			<stop
   offset="0.7602"
   style="stop-color:#FAD33D;stop-opacity:0.2398"
   id="stop125" />&#10;			<stop
   offset="1"
   style="stop-color:#FFEE46;stop-opacity:0"
   id="stop126" />&#10;		</radialGradient>&#10;		&#10;			<path
   style="fill:url(#SVGID_00000087409582194866939170000014496134582556140182_)"
   d="m 252.723,462.601 c 0,0 15.482,-1.721 58.667,37.019 43.185,38.74 90.18,18.893 98.753,14.527 8.573,-4.366 30.437,-0.181 21.592,13.733 -8.065,12.688 -17.782,16.829 -17.782,16.829 0,0 47.948,-2.858 55.886,13.336 7.938,16.194 13.972,55.569 -44.137,73.986 -58.109,18.417 -110.998,3.807 -153.617,-29.532 -42.619,-33.34 -49.605,-38.738 -49.605,-38.738"
   clip-path="url(#SVGID_00000008146225373828261820000015863959179907486878_)"
   id="path126" />&#10;		&#10;			<radialGradient
   id="SVGID_00000147923075493381570670000016659529370333661586_"
   cx="618.13538"
   cy="579.84857"
   r="131.0567"
   gradientUnits="userSpaceOnUse">&#10;			<stop
   offset="0"
   style="stop-color:#F9CA41"
   id="stop127" />&#10;			<stop
   offset="1"
   style="stop-color:#FBDA47"
   id="stop128" />&#10;		</radialGradient>&#10;		&#10;			<path
   style="fill:url(#SVGID_00000147923075493381570670000016659529370333661586_)"
   d="m 675.352,677.809 c -74.872,47.047 -176.298,33.289 -188.682,-4.815 -12.384,-38.104 21.275,-52.393 27.943,-52.393 6.668,0 18.417,-3.493 20.957,-4.763 2.54,-1.27 -20.957,-10.161 -20.957,-20.64 0,-17.126 16.512,-13.019 31.753,-8.573 15.241,4.446 53.981,4.763 53.981,4.763 53.981,-9.844 87.64,-80.654 102.881,-107.962 11.29,-20.228 30.594,-28.26 39.845,-31.065 l 6.008,-0.371 c 10e-4,0 26.762,169.456 -73.729,225.819"
   clip-path="url(#SVGID_00000008146225373828261820000015863959179907486878_)"
   id="path128" />&#10;		&#10;			<radialGradient
   id="SVGID_00000002368684703448164180000001319883204045771943_"
   cx="642.26813"
   cy="529.04303"
   r="131.0567"
   gradientTransform="matrix(0.6946,-0.7194,0.4613,0.4454,-47.9151,755.4113)"
   gradientUnits="userSpaceOnUse">&#10;			<stop
   offset="0"
   style="stop-color:#F1A22E"
   id="stop129" />&#10;			<stop
   offset="0.2018"
   style="stop-color:#F2A830;stop-opacity:0.7982"
   id="stop130" />&#10;			<stop
   offset="0.4647"
   style="stop-color:#F5B835;stop-opacity:0.5353"
   id="stop131" />&#10;			<stop
   offset="0.7602"
   style="stop-color:#FAD33D;stop-opacity:0.2398"
   id="stop132" />&#10;			<stop
   offset="1"
   style="stop-color:#FFEE46;stop-opacity:0"
   id="stop133" />&#10;		</radialGradient>&#10;		&#10;			<path
   style="fill:url(#SVGID_00000002368684703448164180000001319883204045771943_)"
   d="m 675.352,677.809 c -74.872,47.047 -176.298,33.289 -188.682,-4.815 -12.384,-38.104 21.275,-52.393 27.943,-52.393 6.668,0 18.417,-3.493 20.957,-4.763 2.54,-1.27 -20.957,-10.161 -20.957,-20.64 0,-17.126 16.512,-13.019 31.753,-8.573 15.241,4.446 53.981,4.763 53.981,4.763 53.981,-9.844 87.64,-80.654 102.881,-107.962 11.29,-20.228 30.594,-28.26 39.845,-31.065 l 6.008,-0.371 c 10e-4,0 26.762,169.456 -73.729,225.819"
   clip-path="url(#SVGID_00000008146225373828261820000015863959179907486878_)"
   id="path133" />&#10;	</g>&#10;	<path
   style="fill:#eb8421"
   d="m 263.262,580.16 c 0,0 0.115,0.338 0.34,0.964 -0.112,-0.322 -0.23,-0.641 -0.34,-0.964 z"
   id="path134" />&#10;	<path
   style="fill:none"
   d="m 609.212,724.556 c -0.456,0.225 -0.906,0.437 -1.36,0.66 0.454,-0.217 0.906,-0.439 1.36,-0.66 z"
   id="path135" />&#10;	<path
   style="fill:none"
   d="m 290.126,635.492 c -16.411,-27.26 -24.805,-49.575 -26.525,-54.368 6.654,19.302 15.603,37.533 26.525,54.368 z"
   id="path136" />&#10;</g>&#10;</svg>
